

<svg version="1.1" xmlns="http://www.w3.org/2000/svg" xmlns:xlink="http://www.w3.org/1999/xlink"  viewBox="0 0 256 256" enable-background="new 0 0 256 256" xml:space="preserve">
<metadata> Svg Vector Icons : http://www.onlinewebfonts.com/icon </metadata>
<g><g><g><path fill="#CCCCCC" d="M126.6,20.6v12.7H94.5H62.4v24.9V83h32.1h32.1v17.6v17.6H86.2l-40.5,0L28,130.3c-9.8,6.7-17.9,12.3-18,12.5c0,0.2,8,6,17.9,12.7l18,12.3h40.3h40.4V208v40.1h4.7h4.7V208v-40.1h28.8h28.8V143v-24.9h-28.8H136v-17.6V83h37h37l18-12.2c9.9-6.7,18-12.4,18-12.7c0-0.2-7.9-5.9-17.6-12.5l-17.6-12.1l-37.3-0.2L136.3,33l-0.1-12.6L136,7.9h-4.7h-4.7L126.6,20.6L126.6,20.6z"/></g></g></g>
</svg>