
<svg version="1.1" xmlns="http://www.w3.org/2000/svg" xmlns:xlink="http://www.w3.org/1999/xlink" x="0px" y="0px" viewBox="0 0 256 256" enable-background="new 0 0 256 256" xml:space="preserve">
<metadata> Svg Vector Icons : http://www.onlinewebfonts.com/icon </metadata>
<g><g><path fill="#CCCCCC" d="M202.4,88.2L246,237H10L69.6,88.3L202.4,88.2L202.4,88.2z"/><path fill="#CCCCCC" d="M135.1,110.5c-25.2,0-45.8-20.5-45.8-45.8S109.8,19,135.1,19c25.2,0,45.8,20.5,45.8,45.8C180.9,90,160.4,110.5,135.1,110.5z M135.1,37.3c-15.1,0-27.5,12.3-27.5,27.5c0,15.1,12.3,27.5,27.5,27.5c15.1,0,27.5-12.3,27.5-27.5C162.6,49.6,150.3,37.3,135.1,37.3z"/></g></g>
</svg>